<svg xmlns="http://www.w3.org/2000/svg" version="1.1" xmlns:xlink="http://www.w3.org/1999/xlink" xmlns:svgjs="http://svgjs.dev/svgjs" width="1500" height="1500" viewBox="0 0 1500 1500"><g transform="matrix(1,0,0,1,-0.21332335329316265,-0.21332335329350371)"><svg viewBox="0 0 334 334" data-background-color="#fdfdfd" preserveAspectRatio="xMidYMid meet" height="1500" width="1500" xmlns="http://www.w3.org/2000/svg" xmlns:xlink="http://www.w3.org/1999/xlink"><g id="tight-bounds" transform="matrix(1,0,0,1,0.04749999999998522,0.04750000000001364)"><svg viewBox="0 0 333.90454557049503 333.90454557049503" height="333.90454557049503" width="333.90454557049503"><g><svg></svg></g><g><svg viewBox="0 0 333.90454557049503 333.90454557049503" height="333.90454557049503" width="333.90454557049503"><g><path d="M0 166.952c0-92.205 74.747-166.952 166.952-166.952 92.205 0 166.952 74.747 166.953 166.952 0 92.205-74.747 166.952-166.953 166.953-92.205 0-166.952-74.747-166.952-166.953zM166.952 323.328c86.364 0 156.376-70.012 156.376-156.376 0-86.364-70.012-156.376-156.376-156.375-86.364 0-156.376 70.012-156.375 156.375 0 86.364 70.012 156.376 156.375 156.376z" data-fill-palette-color="tertiary" fill="#000000" stroke="transparent"></path><ellipse rx="160.27418187383762" ry="160.27418187383762" cx="166.95227278524752" cy="166.95227278524752" fill="#000000" stroke="transparent" stroke-width="0" fill-opacity="1" data-fill-palette-color="tertiary"></ellipse></g><g transform="matrix(1,0,0,1,114.74293270480496,71.17305217166896)"><svg viewBox="0 0 104.4186801608851 191.55844122715712" height="191.55844122715712" width="104.4186801608851"><g><svg viewBox="0 0 104.4186801608851 191.55844122715712" height="191.55844122715712" width="104.4186801608851"><g><svg viewBox="0 0 170.54880573772695 312.8756591247387" height="191.55844122715712" width="104.4186801608851"><g transform="matrix(1,0,0,1,0,121.31721789758159)"><svg viewBox="0 0 170.54880573772695 191.55844122715712" height="191.55844122715712" width="170.54880573772695"><g id="textblocktransform"><svg viewBox="0 0 170.54880573772695 191.55844122715712" height="191.55844122715712" width="170.54880573772695" id="textblock"><g><svg viewBox="0 0 170.54880573772695 191.55844122715712" height="191.55844122715712" width="170.54880573772695"><g transform="matrix(1,0,0,1,0,0)"><svg width="170.54880573772695" viewBox="4.38 -32.29 28.750000000000004 32.29" height="191.55844122715712" data-palette-color="#61777f"><path d="M8.13 0L4.38 0 4.38-32.29 18.89-12.29 33.13-32.29 33.13 0 29.17 0 29.17-14.44Q29.17-15.87 29.2-17.55 29.24-19.24 29.44-21.39L29.44-21.39Q28.37-19.48 27.34-18.04 26.32-16.6 25.49-15.38L25.49-15.38 18.75-5.83 11.81-15.38Q10.94-16.6 9.95-18.04 8.96-19.48 7.85-21.39L7.85-21.39Q8.06-19.24 8.09-17.55 8.13-15.87 8.13-14.44L8.13-14.44 8.13 0Z" opacity="1" transform="matrix(1,0,0,1,0,0)" fill="#61777f" class="wordmark-text-0" data-fill-palette-color="quaternary" id="text-0"></path></svg></g></svg></g></svg></g></svg></g><g transform="matrix(1,0,0,1,32.57482189590585,0)"><svg viewBox="0 0 105.39916194591525 76.09486732643924" height="76.09486732643924" width="105.39916194591525"><g><svg xmlns="http://www.w3.org/2000/svg" xmlns:xlink="http://www.w3.org/1999/xlink" xmlns:a="http://ns.adobe.com/AdobeSVGViewerExtensions/3.0/" version="1.1" x="0" y="0" viewBox="0 0 83.62 60.371" enable-background="new -8.178 -25.629 100 100" xml:space="preserve" height="76.09486732643924" width="105.39916194591525" class="icon-icon-0" data-fill-palette-color="quaternary" id="icon-0"><path d="M24.325 0.001h-1.617V0H12.26v0h-1.812H7.865 0v47.083h10.448V28.039h1.812v19.043h10.448V28.039h1.617v19.044h10.448V0L24.325 0.001 24.325 0.001zM9.365 44.811H1.082V2.272h6.783v25.767h1.5V44.811zM21.625 44.811h-8.283V28.039h1.023V2.272h5.999v25.767h1.261V44.811zM22.708 24.372v-3.58h1.617v3.58H22.708zM33.69 44.811h-8.283V28.039h1.457V2.272h6.826V44.811z" fill="#61777f" data-fill-palette-color="quaternary"></path><path d="M73.173 0L73.173 0 71.36 0.001V0H60.912v0h-1.617v0H48.847v0h-1.812v0H36.587v47.083h10.447V28.039h1.812v19.044h10.448V28.039h1.617v19.044H71.36V28.039h1.812v19.044h10.448V0H73.173zM45.952 44.811h-8.283V2.272h6.848v25.767h1.436V44.811zM58.212 44.811h-8.283V28.039h1.088V2.272h5.933v25.767h1.263V44.811zM70.277 44.811h-8.283V28.039h1.455V2.272h5.567v25.767h1.261V44.811zM71.36 24.372v-3.58h1.812v3.58H71.36zM82.538 44.811h-8.283V28.039h1.262V2.272h7.021V44.811z" fill="#61777f" data-fill-palette-color="quaternary"></path><rect x="49.244" y="49.371" width="9.654" height="11" fill="#61777f" data-fill-palette-color="quaternary"></rect><rect x="67.439" y="49.371" width="9.654" height="11" fill="#61777f" data-fill-palette-color="quaternary"></rect><rect x="19.498" y="49.371" width="9.654" height="11" fill="#61777f" data-fill-palette-color="quaternary"></rect></svg></g></svg></g><g></g></svg></g></svg></g></svg></g></svg></g><defs></defs></svg><rect width="333.90454557049503" height="333.90454557049503" fill="none" stroke="none" visibility="hidden"></rect></g></svg></g></svg>